<?xml version="1.0" encoding="utf-8"?>
<!-- Generator: Adobe Illustrator 16.0.0, SVG Export Plug-In . SVG Version: 6.00 Build 0)  -->
<!DOCTYPE svg PUBLIC "-//W3C//DTD SVG 1.1//EN" "http://www.w3.org/Graphics/SVG/1.1/DTD/svg11.dtd">
<svg version="1.1" xmlns="http://www.w3.org/2000/svg" xmlns:xlink="http://www.w3.org/1999/xlink" x="0px" y="0px" width="894px"
	 height="632px" viewBox="0 0 894 632" enable-background="new 0 0 894 632" xml:space="preserve">
<symbol  id="Sign_BG" viewBox="-50 -49.338 100 98.675">
	<g>
		<path fill="#00AEF0" d="M0-47.838c-26.378,0-47.838,21.46-47.838,47.838c0,26.377,21.46,47.837,47.838,47.837
			S47.838,26.377,47.838,0C47.838-26.378,26.378-47.838,0-47.838z"/>
		<g>
			<path fill="#FFFFFF" d="M0,46.337C25.551,46.337,46.338,25.55,46.338,0c0-25.551-20.787-46.338-46.338-46.338
				S-46.338-25.551-46.338,0C-46.338,25.55-25.551,46.337,0,46.337 M0,49.337c-27.249,0-49.338-22.089-49.338-49.337
				c0-27.248,22.089-49.338,49.338-49.338c27.248,0,49.338,22.09,49.338,49.338C49.338,27.249,27.248,49.337,0,49.337L0,49.337z"/>
		</g>
	</g>
	<polygon display="none" fill="none" points="-50,49 50,49 50,-49 -50,-49 	"/>
</symbol>
<g id="Background" display="none">
	<rect display="inline" fill="#FFFFFF" width="1151.557" height="631.073"/>
</g>
<g id="White_circles">
</g>
<g id="Blue_circles">
</g>
<g id="Icons">
	
		<use xlink:href="#Sign_BG"  width="100" height="98.675" x="-50" y="-49.338" transform="matrix(0.885 0 0 -0.885 81.6528 231.5903)" overflow="visible"/>
	<g>
		<path fill="#FFFFFF" d="M81.471,225.386c-5.065,0-9.186,4.12-9.186,9.185c0,5.066,4.121,9.187,9.186,9.187
			c5.065,0,9.186-4.12,9.186-9.187C90.657,229.506,86.536,225.386,81.471,225.386z"/>
		<path fill="#FFFFFF" d="M102.579,217.047h-9.481c0-3.292-2.67-5.961-5.961-5.961H75.805c-3.292,0-5.961,2.669-5.961,5.961h-9.481
			c-4.102,0-7.427,3.325-7.427,7.427v20.195c0,4.102,3.325,7.427,7.427,7.427h42.215c4.102,0,7.427-3.325,7.427-7.427v-20.195
			C110.005,220.372,106.68,217.047,102.579,217.047z M81.471,247.666c-7.22,0-13.094-5.875-13.094-13.096
			c0-7.219,5.874-13.093,13.094-13.093c7.221,0,13.095,5.874,13.095,13.093C94.565,241.791,88.691,247.666,81.471,247.666z"/>
	</g>
	
		<use xlink:href="#Sign_BG"  width="100" height="98.675" x="-50" y="-49.338" transform="matrix(0.885 0 0 -0.885 81.6528 368.7607)" overflow="visible"/>
	<g>
		<polygon fill="#FFFFFF" points="84.213,345.818 84.213,395.235 79.569,395.235 79.569,345.818 		"/>
		<path fill="#FFFFFF" d="M81.892,370.513"/>
		<path fill="#FFFFFF" d="M64.916,353.508c2.259,0.011,4.083-1.812,4.071-4.071c0.012-2.238-1.812-4.062-4.071-4.07
			c-2.238,0.009-4.062,1.832-4.07,4.07C60.854,351.696,62.678,353.519,64.916,353.508L64.916,353.508z"/>
		<path fill="#FFFFFF" d="M64.916,349.437"/>
		<path fill="#FFFFFF" d="M64.314,379.347v14.232c0.012,2.567-3.828,2.567-3.829,0v-14.232H55.39l5.456-18.905h-0.874l-3.197,10.795
			c-0.761,2.358-3.991,1.391-3.257-1.115l3.558-11.729c0.389-1.343,2.08-3.713,5.006-3.709h2.683l0,0h2.925
			c2.894-0.004,4.591,2.386,5.035,3.709l3.558,11.698c0.712,2.523-2.493,3.568-3.257,1.114l-3.195-10.763h-0.935l5.487,18.904
			h-5.095v14.262c-0.001,2.537-3.826,2.524-3.829,0v-14.262L64.314,379.347L64.314,379.347z"/>
		<path fill="#FFFFFF" d="M93.981,354.652c-2.861,0.012-5.165,2.382-5.155,5.337v12.603c-0.01,2.449,3.524,2.449,3.528,0v-11.516
			h0.843v31.928c-0.01,3.268,4.698,3.169,4.704,0v-18.693h0.814v18.693c-0.011,3.169,4.722,3.268,4.732,0v-31.928h0.815v11.516
			c-0.008,2.469,3.509,2.467,3.499,0v-12.511c0.004-2.742-2.083-5.412-5.216-5.398L93.981,354.652L93.981,354.652z"/>
		<path fill="#FFFFFF" d="M98.293,353.508c2.236,0.011,4.06-1.812,4.07-4.071c-0.01-2.238-1.834-4.062-4.07-4.07
			c-2.261,0.009-4.084,1.832-4.07,4.07C94.209,351.696,96.032,353.519,98.293,353.508L98.293,353.508z"/>
		<path fill="#FFFFFF" d="M98.293,349.437"/>
	</g>
	
		<use xlink:href="#Sign_BG"  width="100" height="98.675" x="-50" y="-49.338" transform="matrix(0.885 0 0 -0.885 81.4707 511.0527)" overflow="visible"/>
	<path fill="#FFFFFF" d="M106.521,507.252l-6.598,3.355v-24.836H95.45v27.11l-2.909-5.63l-3.521,1.79v-23.271h-4.474v25.545
		l-3.075,1.565l-2.908-5.63l-11.071,5.63l-2.908-5.63l-11.07,5.63v18.763h13.978h13.979H95.45h13.978v-18.763L106.521,507.252z
		 M65.256,526.968H55.75v-5.859h9.506V526.968z M79.234,526.968h-9.504v-5.859h9.504V526.968z M93.213,526.968h-9.505v-5.859h9.505
		V526.968z M107.191,526.968h-9.505v-5.859h9.505V526.968z"/>
	<g>
		
			<use xlink:href="#Sign_BG"  width="100" height="98.675" x="-50" y="-49.338" transform="matrix(0.885 0 0 -0.885 81.6528 94.4214)" overflow="visible"/>
		<path fill="#FFFFFF" d="M99.372,73.73c-0.842-1.992-9.535-5.208-12.407,7.621L71.801,92.724l-22.685,13.582l1.136,0.394
			l3.015-0.88l-4.787,2.827l1.569,0.543l16.236-4.824c0,0,7.326,1,13.033,1.004c-0.268,0.538-0.538,1.075-0.807,1.614
			c-0.272,0.544,2.026,5.985,2.875,8.576c-1.431,0.217-2.862,0.435-4.293,0.652c-0.512,0.078-0.293,0.852,0.214,0.775
			c1.507-0.229,3.014-0.458,4.521-0.687c1.507,0.229,3.015,0.458,4.521,0.687c0.507,0.077,0.726-0.697,0.214-0.775
			c-1.444-0.22-2.888-0.438-4.332-0.658c-0.065-0.224-0.132-0.446-0.197-0.669c-0.256-0.868-0.513-1.735-0.769-2.603
			c-0.479-1.621-0.957-3.242-1.437-4.863c-0.003-0.012-0.007-0.019-0.009-0.029c0.173-0.349,5.653-2.846,5.653-2.846
			s-0.002,0-0.003,0c19.906-7.165,8.941-23.591,13.137-26.142c1.764-1.072,7.812-2.681,7.812-2.681
			C106.418,73.891,99.372,73.73,99.372,73.73z"/>
	</g>
	<rect x="25.718" y="146.635" fill="none" width="111.505" height="17.699"/>
	<text transform="matrix(1 0 0 1 30.9585 158.7295)" font-family="'Avenir-Light'" font-size="16">Bird Watching</text>
	<g>
		
			<use xlink:href="#Sign_BG"  width="100" height="98.675" x="-50" y="-49.338" transform="matrix(0.885 0 0 -0.885 264.2886 94.4214)" overflow="visible"/>
		<g>
			<path fill="#FFFFFF" d="M258.874,101.293l-14.854,14.855c6.242,5.832,14.386,8.47,22.347,7.916
				C267.272,116.002,264.772,107.627,258.874,101.293z"/>
			<path fill="#FFFFFF" d="M268.459,123.843c5.845-0.823,11.49-3.388,16.102-7.694l-20.272-20.271l-3.96,3.959
				C266.579,106.514,269.29,115.319,268.459,123.843z"/>
			<path fill="#FFFFFF" d="M257.418,99.838l-14.856,14.854c-5.832-6.243-8.471-14.386-7.915-22.349
				C242.709,91.44,251.083,93.938,257.418,99.838z"/>
			<path fill="#FFFFFF" d="M234.867,90.251c0.824-5.844,3.389-11.491,7.695-16.101l20.271,20.271l-3.96,3.96
				C252.196,92.132,243.392,89.421,234.867,90.251z"/>
			<path fill="#FFFFFF" d="M271.16,89.005l14.856-14.855c5.832,6.243,8.47,14.387,7.916,22.349
				C285.87,97.404,277.495,94.906,271.16,89.005z"/>
			<path fill="#FFFFFF" d="M293.711,98.591c-0.825,5.846-3.39,11.491-7.695,16.102l-20.271-20.271l3.959-3.96
				C276.381,96.71,285.186,99.422,293.711,98.591z"/>
			<path fill="#FFFFFF" d="M269.705,87.55l14.856-14.855c-6.243-5.832-14.386-8.47-22.35-7.916
				C261.307,72.842,263.805,81.215,269.705,87.55z"/>
			<path fill="#FFFFFF" d="M260.12,65c-5.846,0.824-11.492,3.388-16.101,7.695l20.27,20.271l3.96-3.96
				C261.999,82.329,259.288,73.523,260.12,65z"/>
		</g>
	</g>
	<rect x="208.536" y="146.635" fill="none" width="111.505" height="17.699"/>
	<text transform="matrix(1 0 0 1 219.2246 158.7295)" font-family="'Avenir-Light'" font-size="16">Sports Court</text>
	<g>
		
			<use xlink:href="#Sign_BG"  width="100" height="98.675" x="-50" y="-49.338" transform="matrix(0.885 0 0 -0.885 447.1064 94.4214)" overflow="visible"/>
		<g>
			<path fill="#FFFFFF" d="M468.462,88.936c-2.199,0-4.26,0.579-6.045,1.592l-4.092-6.241l1.287-2.536h2.043
				c0.555,0,1.416-0.439,1.416-1.439c-0.182-1.594-1.58-1.663-3.801-0.798c-3.643,0-5.498,0.387-5.498,2.238h4.184l-0.711,1.397
				h-20.197c0.605-1.468,1.184-2.954,1.715-4.465c-1.047,0-2.227-0.064-2.227-0.913c0-0.83,0.732-0.944,1.275-0.973h7.266v-1.476
				h-7.264c-1.551-0.021-2.805,0.627-2.805,2.099c0,1.094,0.389,2.085,1.947,2.503c-1.959,4.907-3.625,8.132-4.828,10.799
				c-1.859-1.131-4.043-1.784-6.381-1.784c-6.789,0-12.291,5.506-12.291,12.296c0,6.79,5.502,12.292,12.291,12.292
				c6.792,0,12.297-5.503,12.297-12.292c0-3.938-1.852-7.44-4.732-9.69c0.924-2,1.844-4.002,2.727-6.024l9.221,12.952
				c-0.896,0.811-1.463,1.985-1.463,3.29c0,2.274,1.717,4.15,3.926,4.399v1.785h-1.186v1.194h3.377v-1.194h-1.188v-1.786
				c2.209-0.25,3.926-2.125,3.926-4.4c0-0.024,0.002-0.049,0-0.074h3.529c0.238,6.581,5.645,11.841,12.281,11.841
				c6.791,0,12.299-5.503,12.299-12.292C480.761,94.442,475.253,88.936,468.462,88.936z M436.034,101.232
				c0,5.679-4.609,10.281-10.288,10.281c-5.678,0-10.279-4.603-10.279-10.281c0-5.679,4.602-10.281,10.279-10.281
				c2.039,0,3.938,0.596,5.536,1.618c-0.711,1.542-1.377,2.952-2.08,4.475c-0.002,0.006-0.006,0.012-0.008,0.019
				c-0.7,1.188-1.616,2.051-2.543,2.809c-0.258-0.173-0.568-0.277-0.904-0.277c-0.902,0-1.631,0.735-1.631,1.638
				c0,0.902,0.729,1.633,1.631,1.633c0.904,0,1.639-0.731,1.639-1.633c0-0.015-0.004-0.032-0.006-0.045
				c1.07-0.852,2.235-1.903,3.124-3.441l0.02-0.032l0.014-0.028c0.617-1.428,1.258-2.842,1.904-4.253
				C434.638,95.317,436.034,98.111,436.034,101.232z M462.515,92.851l4.76,7.264c-0.104,0.111-0.195,0.238-0.264,0.375h-8.795
				C458.44,97.336,460.083,94.58,462.515,92.851z M436.665,84.341h19.977l-6.752,13.312c-0.365-0.149-0.758-0.249-1.164-0.295
				v-1.785h1.188v-1.194h-3.377v1.194h1.186v1.785c-0.525,0.06-1.023,0.216-1.477,0.443L436.665,84.341z M448.224,105.341
				c-1.979,0-3.584-1.604-3.584-3.583c0-1.98,1.605-3.584,3.584-3.584c1.98,0,3.584,1.604,3.584,3.584
				S450.204,105.341,448.224,105.341z M452.468,100.49c-0.24-0.805-0.705-1.517-1.32-2.058l6.555-12.919l3.705,5.65
				c-2.977,2.091-4.982,5.47-5.213,9.327L452.468,100.49L452.468,100.49z M468.462,111.513c-5.525,0-10.029-4.361-10.266-9.83h8.697
				c0.197,0.682,0.824,1.182,1.568,1.182c0.904,0,1.639-0.731,1.639-1.633c0-0.903-0.734-1.638-1.639-1.638
				c-0.033,0-0.066,0.002-0.1,0.005l-4.838-7.385c1.465-0.804,3.15-1.263,4.939-1.263c5.678,0,10.285,4.603,10.285,10.281
				C478.749,106.91,474.142,111.513,468.462,111.513z"/>
			<path fill="#FFFFFF" d="M448.224,98.487c-1.805,0-3.27,1.466-3.27,3.271s1.465,3.27,3.27,3.27s3.268-1.465,3.268-3.27
				S450.028,98.487,448.224,98.487z M448.224,102.316c-0.309,0-0.562-0.249-0.562-0.558c0-0.31,0.254-0.558,0.562-0.558
				c0.311,0,0.557,0.248,0.557,0.558C448.78,102.067,448.534,102.316,448.224,102.316z"/>
		</g>
	</g>
	<rect x="391.354" y="146.635" fill="none" width="111.506" height="17.699"/>
	<text transform="matrix(1 0 0 1 413.915 158.7295)" font-family="'Avenir-Light'" font-size="16">Bike Path</text>
	<rect x="25.718" y="283.804" fill="none" width="111.505" height="17.699"/>
	<text transform="matrix(1 0 0 1 45.7422 295.8984)" font-family="'Avenir-Light'" font-size="16">Panorama</text>
	<rect x="25.718" y="420.973" fill="none" width="111.505" height="17.699"/>
	<text transform="matrix(1 0 0 1 43.8145 433.0684)" font-family="'Avenir-Light'" font-size="16">Restrooms</text>
	<rect x="25.718" y="568.073" fill="none" width="111.505" height="17.699"/>
	<text transform="matrix(1 0 0 1 36.7104 580.1689)" font-family="'Avenir-Light'" font-size="16">Flare Station</text>
	
		<use xlink:href="#Sign_BG"  width="100" height="98.675" x="-50" y="-49.338" transform="matrix(0.885 0 0 -0.885 264.2886 368.7607)" overflow="visible"/>
	<g>
		<circle fill="#FFFFFF" cx="243.203" cy="379.191" r="4.089"/>
		<circle fill="#FFFFFF" cx="273.271" cy="379.191" r="4.089"/>
		<path fill="#FFFFFF" d="M293.844,367.217l-11.13-11.975h-9.124c-1.043,0-1.89,0.846-1.89,1.891s0.847,1.891,1.89,1.891h7.151
			l9.133,20.098c3.478-0.346,6.19-3.278,6.19-6.844C296.065,370.275,295.209,368.475,293.844,367.217z"/>
		<path fill="#FFFFFF" d="M279.849,360.437h-6.259c-1.82,0-3.302-1.482-3.302-3.304c0-0.703,0.223-1.354,0.599-1.891h-19.681v18.684
			v5.266h16.799c0-2.908,2.357-5.266,5.266-5.266c2.907,0,5.265,2.357,5.265,5.266h1.93l0,0h7.909L279.849,360.437z"/>
		<path fill="#FFFFFF" d="M237.554,360.833l-4.59,7.532v5.562v2.054h-1.397v3.211h1.397h4.973l0,0c0-2.908,2.356-5.265,5.266-5.265
			c2.908,0,5.265,2.356,5.265,5.265h1.562v-5.265v-13.094H237.554z M243.294,366.852c0,0.353-0.287,0.64-0.64,0.64h-7.096
			c-0.171,0-0.296-0.058-0.355-0.161c-0.059-0.104-0.042-0.242,0.047-0.388l2.673-4.387c0.183-0.3,0.618-0.545,0.97-0.545h3.76
			c0.353,0,0.64,0.287,0.64,0.64V366.852z"/>
	</g>
	
		<use xlink:href="#Sign_BG"  width="100" height="98.675" x="-50" y="-49.338" transform="matrix(0.885 0 0 -0.885 264.2886 231.5903)" overflow="visible"/>
	<g>
		<path fill="#FFFFFF" d="M264.544,210.75c2.64,0,4.773-2.146,4.773-4.786c0-2.641-2.133-4.772-4.773-4.772
			s-4.787,2.132-4.787,4.772C259.757,208.604,261.904,210.75,264.544,210.75z"/>
		<path fill="#FFFFFF" d="M256.468,211.541c0.184-0.734-0.282-1.468-1.002-1.651l-3.981-0.96c-0.749-0.169-1.483,0.268-1.653,1.002
			l-3.346,13.851c-0.184,0.734,0.267,1.468,1.003,1.652l3.996,0.959c0.72,0.184,1.467-0.268,1.637-1.002L256.468,211.541z"/>
		<path fill="#FFFFFF" d="M274.851,260.801c0,0.029-0.014,0.058-0.014,0.072c0,0.606,0.493,1.1,1.102,1.1
			c0.55,0,1.017-0.423,1.087-0.958l8.02-43.5c0-0.028,0-0.057,0-0.085c0-0.592-0.481-1.087-1.088-1.087
			c-0.552,0-0.973,0.424-1.088,0.96L274.851,260.801z"/>
		<path fill="#FFFFFF" d="M248.167,257.95c-0.043,0.226-0.058,0.452-0.058,0.677c0,1.864,1.498,3.36,3.361,3.36
			c1.525,0,2.81-1.017,3.219-2.4l5.775-23.903l5.506,23.763c0.353,1.468,1.681,2.543,3.248,2.543c1.864,0,3.359-1.498,3.359-3.362
			c0-0.254-0.028-0.493-0.069-0.732l-7.555-31.571l0.635-2.781l0.494,2.188c0.453,1.426,1.751,1.567,1.751,1.567l7.78,1.976
			c0.155,0.029,0.309,0.042,0.465,0.042c1.271,0,2.303-1.016,2.303-2.287c0-1.087-0.75-2.005-1.766-2.245l-6.733-1.694l-1.853-7.511
			c-0.875-4.193-4.883-4.095-4.883-4.095c-3.897-0.099-4.872,3.996-4.872,3.996L248.167,257.95z"/>
	</g>
	
		<use xlink:href="#Sign_BG"  width="100" height="98.675" x="-50" y="-49.338" transform="matrix(0.885 0 0 -0.885 264.2886 510.0518)" overflow="visible"/>
	<path fill="#FFFFFF" d="M264.406,542.8h2.926v-14.83l0.001,0.002h16.344c0.316-0.004,0.559-0.337,0.559-0.665
		c0-0.121-0.032-0.233-0.09-0.331l-8.532-14.353c-0.094-0.155-0.222-0.592,0.271-0.675l2.126-0.216
		c0.314-0.004,0.554-0.337,0.554-0.666c0-0.12-0.033-0.232-0.091-0.33l-6.86-11.772c-0.138-0.215-0.075-0.528,0.217-0.572
		l1.241-0.212c0.313-0.053,0.496-0.424,0.441-0.75c-0.014-0.076-0.039-0.148-0.074-0.212l-4.947-8.574
		c-0.098-0.183,0.018-0.399,0.182-0.45l0.646-0.195c0.305-0.092,0.44-0.485,0.345-0.802c-0.015-0.05-0.037-0.099-0.062-0.142
		l-4.715-8.166c-0.102-0.163-0.274-0.274-0.481-0.274c-0.207,0-0.379,0.111-0.48,0.274l-4.715,8.168
		c-0.025,0.041-0.046,0.091-0.062,0.141c-0.095,0.315,0.04,0.709,0.345,0.801l0.647,0.196c0.165,0.05,0.279,0.268,0.183,0.449
		l-4.949,8.576c-0.035,0.062-0.06,0.135-0.073,0.21c-0.056,0.327,0.128,0.697,0.44,0.751l1.241,0.211
		c0.292,0.044,0.354,0.358,0.217,0.573l-6.861,11.771c-0.057,0.098-0.091,0.21-0.091,0.33c0,0.329,0.24,0.662,0.554,0.666
		l2.126,0.216c0.493,0.083,0.365,0.52,0.273,0.675l-8.533,14.353c-0.058,0.097-0.089,0.209-0.089,0.329
		c0,0.329,0.243,0.663,0.557,0.667h16.344l0.002-0.004V542.8H264.406z"/>
	<rect x="208.536" y="283.804" fill="none" width="111.505" height="17.699"/>
	<text transform="matrix(1 0 0 1 224.1616 295.8994)" font-family="'Avenir-Light'" font-size="16">Hiking Trail</text>
	<rect x="208.536" y="420.973" fill="none" width="111.505" height="17.699"/>
	<text transform="matrix(1 0 0 1 208.8657 433.0684)" font-family="'Avenir-Light'" font-size="16">Sanitation Plant</text>
	<rect x="208.536" y="568.073" fill="none" width="111.505" height="17.699"/>
	<text transform="matrix(1 0 0 1 249.0332 580.1689)" font-family="'Avenir-Light'" font-size="16">Park</text>
	
		<use xlink:href="#Sign_BG"  width="100" height="98.675" x="-50" y="-49.338" transform="matrix(0.885 0 0 -0.885 447.1055 231.5903)" overflow="visible"/>
	<g>
		<path fill="#FFFFFF" d="M467.104,238.039c-1.143,0-2.236,0.265-3.205,0.718c-0.957,0.415-2.012,0.667-3.117,0.667
			c-1.107,0-2.164-0.252-3.121-0.667c-0.969-0.453-2.061-0.718-3.207-0.718c-1.131,0-2.225,0.265-3.205,0.718
			c-0.943,0.415-2,0.667-3.107,0.667c-1.105,0-2.174-0.252-3.117-0.667c-0.969-0.453-2.062-0.718-3.207-0.718
			s-2.24,0.265-3.207,0.718c-0.955,0.415-2.012,0.667-3.117,0.667c-1.107,0-2.164-0.252-3.119-0.667
			c-0.969-0.453-2.051-0.718-3.195-0.718c-1.144,0-2.236,0.265-3.207,0.718c-0.955,0.415-2.012,0.667-3.117,0.667v4.664
			c1.105,0,2.162-0.253,3.117-0.666c0.971-0.452,2.062-0.717,3.207-0.717c1.145,0,2.227,0.265,3.195,0.717
			c0.803,0.352,1.697,0.552,2.615,0.616l-3.873,3.861c-1.232-0.768-2.867-0.631-3.935,0.438l-4.441,4.44
			c-1.232,1.232-1.232,3.232,0,4.477c1.244,1.232,3.244,1.232,4.477,0l4.439-4.438c1.006-1.008,1.184-2.515,0.553-3.711l5.346-5.332
			c0.365-0.112,0.717-0.201,1.057-0.352c0.967-0.452,2.062-0.717,3.205-0.717c1.145,0,2.238,0.265,3.207,0.717
			c0.943,0.413,2.012,0.666,3.119,0.666c1.105,0,2.162-0.253,3.105-0.666c0.98-0.452,2.074-0.717,3.207-0.717
			c1.145,0,2.238,0.265,3.207,0.717c0.955,0.413,2.012,0.666,3.117,0.666c1.109,0,2.164-0.253,3.119-0.666
			c0.969-0.452,2.062-0.717,3.207-0.717s2.227,0.265,3.207,0.717c0.943,0.413,2.012,0.666,3.119,0.666v-4.664
			c-1.107,0-2.176-0.252-3.119-0.667C469.332,238.304,468.25,238.039,467.104,238.039z"/>
		<path fill="#FFFFFF" d="M469.256,215.221l4.438-4.439c1.246-1.246,1.246-3.245,0-4.477c-1.23-1.245-3.244-1.245-4.475,0
			l-4.439,4.439c-1.07,1.069-1.209,2.704-0.428,3.923l-5.521,5.527l-10.967-4.061c-0.287-0.164-0.59-0.303-0.93-0.403
			c-2.389-0.717-4.918,0.642-5.635,3.031l-3.369,11.293c-0.051,0.132-0.062,0.244-0.076,0.358h-14.988v6.062
			c0.816,0,1.66-0.188,2.402-0.516c1.219-0.566,2.576-0.868,3.91-0.868c1.332,0,2.678,0.302,3.871,0.854
			c0.795,0.352,1.609,0.528,2.441,0.528c0.842,0,1.658-0.177,2.414-0.515c1.232-0.566,2.578-0.869,3.91-0.869
			c1.346,0,2.666,0.289,3.887,0.855c0.768,0.352,1.611,0.528,2.439,0.528c0.832,0,1.648-0.177,2.414-0.517
			c1.221-0.564,2.58-0.867,3.898-0.867c1.359,0,2.668,0.289,3.887,0.855c0.779,0.352,1.621,0.526,2.441,0.526
			c0.828,0,1.658-0.175,2.414-0.515c1.219-0.565,2.576-0.869,3.908-0.869c0.229,0,1.146,0.07,2.051-0.533
			c1.609-0.704,2.215-1.108,3.621-1.969c1.156-0.71,2.113-2.257-0.4-2.175c-0.705,0.024-21.48,0-21.48,0l6.363-6.357l0.855,0.327
			c1.082,0.39,2.289-0.163,2.691-1.244c0.275-0.767,0.062-1.598-0.465-2.151l5.205-5.226
			C466.74,216.39,468.25,216.227,469.256,215.221z M448.607,230.412h-1.346l2.715-9.049l5.607,2.076L448.607,230.412z"/>
		<path fill="#FFFFFF" d="M448.568,210.197l-0.578,1.232c-0.377,0.767-1.158,1.295-2.051,1.295h-1.357
			c0.781,1.107,2.062,1.824,3.51,1.824c2.363,0,4.287-1.912,4.287-4.277v-0.227h-3.609
			C448.682,210.045,448.594,210.109,448.568,210.197z"/>
		<path fill="#FFFFFF" d="M445.939,211.643c0.465,0,0.881-0.277,1.07-0.679l0.566-1.232c0.211-0.465,0.666-0.779,1.193-0.779h4.426
			c-0.578-2.276-2.652-3.949-5.105-3.949c-2.904,0-5.256,2.352-5.256,5.269c0,0.465,0.051,0.931,0.176,1.371H445.939z"/>
	</g>
	
		<use xlink:href="#Sign_BG"  width="100" height="98.675" x="-50" y="-49.338" transform="matrix(0.885 0 0 -0.885 447.1055 368.7607)" overflow="visible"/>
	<g>
		<path fill="#FFFFFF" d="M447.107,336.968c-17.361-0.01-31.437,14.206-31.453,31.729c0.016,17.551,14.091,31.766,31.453,31.76
			c17.365,0.006,31.439-14.209,31.451-31.76C478.547,351.174,464.473,336.958,447.107,336.968z M447.107,393.143
			c-13.359,0-24.187-10.939-24.173-24.447c-0.016-13.479,10.814-24.418,24.173-24.414c13.363-0.004,24.193,10.936,24.209,24.416
			C471.301,382.203,460.469,393.143,447.107,393.143z"/>
		<path fill="#FFFFFF" d="M443.844,379.924l7.109-0.033v-5.496c-0.016-1.492,0.678-2.902,2.541-4.119
			c1.865-1.228,7.064-3.704,7.072-10.234c-0.008-6.504-5.469-10.982-10.061-11.947c-4.588-0.937-9.561-0.311-13.082,3.571
			c-3.168,3.445-3.834,6.185-3.846,12.224h7.105v-1.407c-0.012-3.215,0.361-6.611,4.947-7.555c2.521-0.492,4.875,0.294,6.283,1.649
			c1.586,1.57,1.598,5.088-0.961,6.834l-3.984,2.712c-2.32,1.504-3.119,3.163-3.125,5.595V379.924L443.844,379.924z"/>
		<polygon fill="#FFFFFF" points="443.811,389.984 443.811,382.706 450.986,382.706 450.986,389.984 		"/>
	</g>
	
		<use xlink:href="#Sign_BG"  width="100" height="98.675" x="-50" y="-49.338" transform="matrix(0.885 0 0 -0.885 447.1055 509.6777)" overflow="visible"/>
	<g>
		<path fill="#FFFFFF" d="M414.76,506v16h4.393c4.986-7,15.933-11.5,28.644-11.5c12.709,0,23.656,4.5,28.643,11.5h3.32v-16H414.76z"
			/>
		<g>
			<g>
				<path fill="none" stroke="#FFFFFF" stroke-width="3" stroke-miterlimit="10" d="M477.205,507.5c-2.381-9-14.863-16.5-29.92-16.5
					c-15.053,0-27.537,7.5-29.917,16.5H477.205z"/>
			</g>
			<g>
				<line fill="#FFFFFF" stroke="#FFFFFF" stroke-width="2" stroke-miterlimit="10" x1="423.76" y1="497" x2="423.76" y2="509"/>
				<line fill="#FFFFFF" stroke="#FFFFFF" stroke-width="2" stroke-miterlimit="10" x1="429.76" y1="494" x2="429.76" y2="509"/>
				<line fill="#FFFFFF" stroke="#FFFFFF" stroke-width="2" stroke-miterlimit="10" x1="434.76" y1="492" x2="434.76" y2="509"/>
				<line fill="#FFFFFF" stroke="#FFFFFF" stroke-width="2" stroke-miterlimit="10" x1="440.76" y1="491" x2="440.76" y2="509"/>
				
					<line fill="#FFFFFF" stroke="#FFFFFF" stroke-width="1.5" stroke-miterlimit="10" x1="447.285" y1="490.583" x2="447.262" y2="509.083"/>
				<line fill="#FFFFFF" stroke="#FFFFFF" stroke-width="2" stroke-miterlimit="10" x1="452.76" y1="491" x2="452.76" y2="509"/>
				<line fill="#FFFFFF" stroke="#FFFFFF" stroke-width="2" stroke-miterlimit="10" x1="458.76" y1="492" x2="458.76" y2="509"/>
				<line fill="#FFFFFF" stroke="#FFFFFF" stroke-width="2" stroke-miterlimit="10" x1="463.76" y1="494" x2="463.76" y2="509"/>
				<line fill="#FFFFFF" stroke="#FFFFFF" stroke-width="2" stroke-miterlimit="10" x1="469.76" y1="497" x2="469.76" y2="509"/>
			</g>
		</g>
	</g>
	<g>
		<g>
			<rect x="478.76" y="506" fill="#FFFFFF" width="4" height="16"/>
		</g>
		<rect x="411.76" y="506" fill="#FFFFFF" width="4" height="16"/>
	</g>
	<rect x="391.354" y="283.804" fill="none" width="111.506" height="17.699"/>
	<text transform="matrix(1 0 0 1 415.1064 295.8984)" font-family="'Avenir-Light'" font-size="16">Kayaking</text>
	<rect x="391.354" y="420.973" fill="none" width="111.506" height="17.699"/>
	<text transform="matrix(1 0 0 1 410.3633 433.0684)" font-family="'Avenir-Light'" font-size="16">Help Desk</text>
	<rect x="391.354" y="568.073" fill="none" width="111.506" height="17.699"/>
	<text transform="matrix(1 0 0 1 423.2588 580.1689)" font-family="'Avenir-Light'" font-size="16">Bridge</text>
	<g>
		
			<use xlink:href="#Sign_BG"  width="100" height="98.675" id="XMLID_1_" x="-50" y="-49.338" transform="matrix(0.885 0 0 -0.885 629.9258 94.4214)" overflow="visible"/>
		<path fill="#FFFFFF" d="M634.783,72.59h-19.602v46.266h8.926V103.66h10.281c7.775,0.009,15.291-6.623,15.281-15.506
			C649.68,80.264,643.363,72.593,634.783,72.59z M634.219,95.159h-9.998V81.178h10.111c3.279-0.012,6.58,3.029,6.58,7.089
			C640.912,92.329,637.836,95.149,634.219,95.159z"/>
	</g>
	<rect x="574.172" y="146.635" fill="none" width="111.506" height="17.699"/>
	<text transform="matrix(1 0 0 1 603.4141 158.7295)" font-family="'Avenir-Light'" font-size="16">Parking</text>
	
		<use xlink:href="#Sign_BG"  width="100" height="98.675" x="-50" y="-49.338" transform="matrix(0.885 0 0 -0.885 629.9258 231.5903)" overflow="visible"/>
	<g>
		<g>
			<polygon fill="#FFFFFF" points="637.838,206 605.164,206 621.5,222.337 			"/>
			<polygon fill="#FFFFFF" points="622.914,223.29 655.369,255.745 639.242,206.963 			"/>
		</g>
		<g>
			<polygon fill="#FFFFFF" points="603.652,239.725 603.75,206.953 620.086,223.29 			"/>
			<polygon fill="#FFFFFF" points="621.5,224.704 653.955,257.159 605.076,241.128 			"/>
		</g>
	</g>
	<rect x="574.172" y="420.973" fill="none" width="111.506" height="17.699"/>
	<text transform="matrix(1 0 0 1 584.2773 433.0684)" font-family="'Avenir-Light'" font-size="16">Construction</text>
	<rect x="574.172" y="568.073" fill="none" width="111.506" height="17.699"/>
	<text transform="matrix(1 0 0 1 611.998 580.1689)" font-family="'Avenir-Light'" font-size="16">Ferry</text>
	<rect x="574.172" y="283.804" fill="none" width="111.506" height="17.699"/>
	<text transform="matrix(1 0 0 1 609.1973 295.8984)" font-family="'Avenir-Light'" font-size="16">Kiting</text>
	
		<use xlink:href="#Sign_BG"  width="100" height="98.675" x="-50" y="-49.338" transform="matrix(0.885 0 0 -0.885 629.6855 368.7607)" overflow="visible"/>
	<g>
		<circle fill="#FFFFFF" cx="621.232" cy="345.013" r="5.943"/>
		<path fill="#FFFFFF" d="M638.641,387.886l-12.037-8.9l-3.559-26.336c-0.582,0.138-1.188,0.213-1.812,0.213
			c-1.898,0-3.641-0.676-5-1.798l-11.193,12.52l5.199,4.458l-0.891,2.229l1.053,25.109h3.555l0.74-16.789l3.715,5.646l1.041,11.144
			h2.822v-13.373l-2.551-6.262l13.662,10.102l-4.945,9.533h12.332l14.041-13.668C645.518,379.572,632.857,374.434,638.641,387.886z
			 M611.576,364.401l-1.635-1.41l2.971-3.047L611.576,364.401z M622.998,376.322l-3.859-2.855l1.797-6.911L622.998,376.322z"/>
	</g>
	
		<use xlink:href="#Sign_BG"  width="100" height="98.675" x="-50" y="-49.338" transform="matrix(0.885 0 0 -0.885 629.9258 509.6777)" overflow="visible"/>
	<g>
		<path id="path7994_1_" fill="#FFFFFF" d="M660.461,531.455c-1.316,0-2.578-0.296-3.695-0.813
			c-1.162-0.538-2.463-0.855-3.822-0.855c-1.357,0-2.664,0.317-3.812,0.855c-1.131,0.518-2.389,0.813-3.709,0.813
			c-1.309,0-2.57-0.296-3.709-0.813c-1.156-0.538-2.455-0.855-3.807-0.855c-1.365,0-2.658,0.317-3.826,0.855
			c-1.117,0.518-2.389,0.813-3.697,0.813c-1.314,0-2.586-0.296-3.703-0.813c-1.162-0.538-2.461-0.855-3.818-0.855
			c-1.359,0-2.668,0.317-3.814,0.855c-1.123,0.518-2.389,0.813-3.703,0.813c-1.322,0-2.578-0.296-3.717-0.813
			c-1.146-0.538-2.455-0.855-3.805-0.855c-1.359,0-2.66,0.317-3.82,0.855c-1.125,0.518-2.389,0.813-3.703,0.813v-5.611
			c1.314,0,2.578-0.303,3.703-0.813c1.16-0.538,2.461-0.855,3.82-0.855c1.35,0,2.658,0.317,3.805,0.855
			c1.139,0.511,2.395,0.813,3.717,0.813c1.314,0,2.58-0.303,3.703-0.813c1.146-0.538,2.455-0.855,3.814-0.855
			c1.357,0,2.656,0.317,3.818,0.855c1.117,0.511,2.389,0.813,3.703,0.813c1.309,0,2.58-0.303,3.697-0.813
			c1.168-0.538,2.461-0.855,3.826-0.855c1.35,0,2.652,0.317,3.807,0.855c1.139,0.511,2.4,0.813,3.709,0.813
			c1.32,0,2.578-0.303,3.709-0.813c1.148-0.538,2.455-0.855,3.812-0.855c1.359,0,2.658,0.317,3.822,0.855
			c1.117,0.511,2.379,0.813,3.695,0.813V531.455z"/>
		<path id="path7996_1_" fill="#FFFFFF" d="M600.32,507.339l-0.02,13.254c1.314,0,2.578-0.295,3.701-0.804
			c1.162-0.54,2.461-0.857,3.82-0.857c1.352,0,2.658,0.318,3.805,0.857c1.141,0.509,2.396,0.804,3.719,0.804
			c1.314,0,2.58-0.295,3.703-0.804c1.146-0.54,2.453-0.857,3.812-0.857c1.357,0,2.658,0.318,3.82,0.857
			c1.117,0.509,2.389,0.804,3.703,0.804c1.309,0,2.578-0.295,3.695-0.804c1.17-0.54,2.461-0.857,3.826-0.857
			c1.352,0,2.654,0.318,3.807,0.857c1.139,0.509,2.402,0.804,3.709,0.804c0.375,0,0.73-0.081,1.096-0.117
			c0.658-0.148,1.33-0.215,1.973-0.473l0.043-0.022c4.777-1.956,8.904-6.814,11.477-10.434l1.283-2.208H600.32z"/>
		<path id="path7998_1_" fill="#FFFFFF" d="M648.008,492.425c-1.469-3.294-5.42-3.013-5.42-3.013h-42.287l-0.01,15.734h53.02
			L648.008,492.425z M620.59,501.735c0,0.605-0.498,1.107-1.104,1.107h-4.885c-0.607,0-1.096-0.502-1.096-1.107v-7.532
			c0-0.604,0.488-1.1,1.096-1.1h4.885c0.605,0,1.104,0.496,1.104,1.1V501.735z M630.75,501.735c0,0.605-0.49,1.107-1.09,1.107
			h-4.924c-0.605,0-1.096-0.502-1.096-1.107v-7.532c0-0.604,0.49-1.1,1.096-1.1h4.924c0.6,0,1.09,0.496,1.09,1.1V501.735z
			 M610.467,501.735c0,0.605-0.496,1.107-1.096,1.107h-4.922c-0.607,0-1.096-0.502-1.096-1.107v-7.532c0-0.604,0.488-1.1,1.096-1.1
			h4.922c0.598,0,1.096,0.496,1.096,1.1V501.735z M634.355,493.104h8.816l0.074-0.007h0.059c0.094-0.007,2.416-0.097,3.199,1.654
			l3.365,8.093h-11.473L634.355,493.104z"/>
	</g>
	<rect x="756.99" y="146.635" fill="none" width="111.506" height="17.699"/>
	<text transform="matrix(1 0 0 1 787.0957 158.7295)" font-family="'Avenir-Light'" font-size="16">Mound</text>
	<g>
		
			<use xlink:href="#Sign_BG"  width="100" height="98.675" id="XMLID_24_" x="-50" y="-49.338" transform="matrix(0.885 0 0 -0.885 812.3936 94.4214)" overflow="visible"/>
		<path fill="#FFFFFF" d="M780.499,103.337c0,0,0.865-0.22,1.113-0.363c0.25-0.144,0.855-0.51,1.197-0.768
			c0.557-0.312,12.496-11.719,12.496-11.719s16.674-15.795,35.387,0.131l11.645,11.131c0,0,0.566,0.521,1.438,1.044
			c0.727,0.381,1.215,0.495,1.215,0.495L780.499,103.337z"/>
	</g>
	
		<use xlink:href="#Sign_BG"  width="100" height="98.675" x="-50" y="-49.338" transform="matrix(0.885 0 0 -0.885 812.7432 509.6777)" overflow="visible"/>
	<rect x="756.99" y="568.073" fill="none" width="111.506" height="17.699"/>
	<text transform="matrix(1 0 0 1 762.9756 580.1689)" font-family="'Avenir-Light'" font-size="16">Freshkills Park</text>
	<rect x="756.99" y="283.804" fill="none" width="111.506" height="17.699"/>
	<text transform="matrix(1 0 0 1 770.7998 295.8984)" font-family="'Avenir-Light'" font-size="16">Water Body</text>
	
		<use xlink:href="#Sign_BG"  width="100" height="98.675" x="-50" y="-49.338" transform="matrix(0.885 0 0 -0.885 812.3936 231.5903)" overflow="visible"/>
	<g>
		<path fill="none" stroke="#FFFFFF" stroke-width="6" stroke-linecap="round" stroke-miterlimit="10" d="M783.353,242.669
			c0,0,2.447,3.391,7.348,3.391c4.898,0,7.348-3.391,7.348-3.391s2.449,3.391,7.348,3.391s7.348-3.391,7.348-3.391
			s2.449,3.391,7.348,3.391s7.348-3.391,7.348-3.391s2.449,3.391,7.348,3.391s7.348-3.391,7.348-3.391"/>
		<path fill="none" stroke="#FFFFFF" stroke-width="6" stroke-linecap="round" stroke-miterlimit="10" d="M783.353,221.122
			c0,0,2.447,3.389,7.348,3.389c4.898,0,7.348-3.389,7.348-3.389s2.449,3.389,7.348,3.389s7.348-3.389,7.348-3.389
			s2.449,3.389,7.348,3.389s7.348-3.389,7.348-3.389s2.449,3.389,7.348,3.389s7.348-3.389,7.348-3.389"/>
		<path fill="none" stroke="#FFFFFF" stroke-width="6" stroke-linecap="round" stroke-miterlimit="10" d="M783.353,231.897
			c0,0,2.447,3.389,7.348,3.389c4.898,0,7.348-3.389,7.348-3.389s2.449,3.389,7.348,3.389s7.348-3.389,7.348-3.389
			s2.449,3.389,7.348,3.389s7.348-3.389,7.348-3.389s2.449,3.389,7.348,3.389s7.348-3.389,7.348-3.389"/>
	</g>
	<path fill="#FFFFFF" d="M791.603,533.045c4.811,0.127,4.252-2.203,9.123-3.162c0.709-0.145,1.154,0.629,1.508,0.316
		c2.279-2.129,5.203-6.443,8.062-3.852c3.164,2.85,0.543,11.225,1.037,15.984c0.838-0.746,2.529-0.758,2.631-1.568
		c0.531-4.025-1.643-8.123-0.379-12.125c1.633-5.162,6.633-0.314,9.555,1.721c0.357,0.256,1.193-0.051,1.52-0.023
		c3.797,0.518,7.266,4.477,11.352,2.113c-1.643-1.719-2.389-4.418-0.188-6.037c0.809-0.568,2.328-0.201,2.561-0.557
		c1.92-2.959,4.877-4.963,8.133-5.303c-1.951-0.281-3.934-1.15-4.795-2.986c-2.055,1.072-4.494,0.607-5.166-1.795
		c-0.809-2.877,1.014-5.016,3.365-6.395c-2.756-3.391-0.344-7.314,1.836-10.568c0.262-0.391,0.113-1.039,0.129-1.58
		c-1.545,1.643-4.809,3.848-6.547,1.443c-4.072,3.125-6.275,2.404-8.479,1.34c-0.848-0.404-0.873,3.393-3.377,2.316
		c-0.797-0.342-1.482-1.229-1.482-2c0.01-2.697,2.584-5.58,0.811-8.25c-0.152-0.232-1.225,0.811-1.924,0.453
		c-2.023-1.021-0.568-5.67-1.857-4.996c-1.547,0.809-1.928,1.365-4.014-1.27c-1.783-2.264-1.775-5.188-2.695-7.771
		c-2.344,2.939-2.227,7.518-5.584,9.572c-0.154,0.102-1.289-1.062-1.023-0.646c-2.447,1.744,0.014,7.555-4.379,5.428
		c-0.508,2.758,1.316,5.457,0.404,8.078c-0.668,1.984-3.453,1.479-4.693-0.08c-0.316,0.775-1.24,0.461-1.697,0.545
		c-1.18,0.242-2.506-0.621-3.572-1.506c-0.564,0.926-1.656,1.434-2.463,1.395c-2.227-0.1-4.24-1.445-6.039-2.85
		c0.281,3.633,3.77,6.266,2.885,10.24c-0.188,0.883-1.619,1.469-1.049,2.328c0.959,1.455,2.721,2.189,3.326,3.871
		c0.646,1.746-1.051,2.787-2.48,3.545c-1.023,0.533-2.555-0.064-3.566,0.734c-1.188,0.961-1.643,2.43-3.42,2.354
		c4.205,0.758,5.443,4.051,6.178,4.545c-0.379-0.254,5.633-0.141,5.227,3.553l-0.783,2.758
		C789.579,532.348,791.448,533.029,791.603,533.045"/>
	<rect x="756.809" y="420.804" fill="none" width="111.506" height="17.699"/>
	<text transform="matrix(1 0 0 1 759.9707 432.8984)" font-family="'Avenir-Light'" font-size="16">Recycling Area</text>
	<g>
		
			<use xlink:href="#Sign_BG"  width="100" height="98.675" x="-50" y="-49.338" transform="matrix(0.885 0 0 -0.885 812.5605 368.5898)" overflow="visible"/>
		<g>
			<path fill="#FFFFFF" d="M799.68,371.427l2.816,1.723c0.475,0,0.715-0.197,0.715-0.59c0-0.25-0.115-0.6-0.336-1.049l-6.219-11.682
				l-13.785,0.336c-0.615,0.029-0.924,0.352-0.924,0.967c0,0.141,0.195,0.336,0.588,0.588l2.857,1.721l-3.025,4.707
				c-0.84,1.346-1.26,2.453-1.26,3.322c0,0.785,0.277,1.668,0.84,2.646l9.371,16.346c-0.225-1.035-0.336-2.018-0.336-2.943
				c0-1.648,0.518-3.275,1.553-4.873L799.68,371.427L799.68,371.427z"/>
			<path fill="#FFFFFF" d="M803.295,361.888l7.732-11.975c-2.889-6.584-5.955-9.877-9.205-9.877c-1.961,0-3.275,0.547-3.949,1.639
				l-7.311,11.684L803.295,361.888L803.295,361.888z"/>
			<path fill="#FFFFFF" d="M796.992,394.327h14.916v-15.504h-14.369c-1.768,2.52-2.873,4.232-3.322,5.125
				c-0.729,1.43-1.092,2.887-1.092,4.369C793.125,392.325,794.414,394.327,796.992,394.327L796.992,394.327z"/>
			<path fill="#FFFFFF" d="M827.711,359.03l6.639-11.178c0.223-0.391,0.334-0.799,0.334-1.219c0-0.504-0.168-0.756-0.502-0.756
				c0.053,0-0.17,0.084-0.674,0.252l-3.025,1.385l-2.771-5.504c-1.234-2.465-3.699-3.697-7.396-3.697h-17.271
				c2.1,0.646,3.529,1.275,4.285,1.891c1.766,1.402,3.572,4.035,5.42,7.9l3.447,7.229l-2.564,1.219
				c-0.252,0.113-0.377,0.336-0.377,0.672c0,0.42,0.264,0.66,0.799,0.715L827.711,359.03L827.711,359.03z"/>
			<path fill="#FFFFFF" d="M834.348,392.019l9.666-17.566c-1.43,1.627-2.984,2.719-4.664,3.277
				c-1.346,0.451-3.268,0.674-5.758,0.674h-10.758v-2.229c0-0.867-0.211-1.303-0.631-1.303c-0.309,0-0.533,0.113-0.672,0.336
				l-6.807,11.807l7.059,10.844c0.535,0.814,0.994,1.135,1.389,0.965c0.389-0.109,0.588-0.318,0.588-0.629v-3.699h5.967
				C831.91,394.495,833.451,393.671,834.348,392.019L834.348,392.019z"/>
			<path fill="#FFFFFF" d="M830.146,376.175h6.43c1.539,0,3.137-0.672,4.789-2.018c1.766-1.4,2.648-2.885,2.648-4.453
				c0-0.727-0.24-1.443-0.715-2.145l-7.646-11.68l-13.156,7.648L830.146,376.175L830.146,376.175z"/>
		</g>
	</g>
</g>
</svg>
